<svg width="11" height="8" viewBox="0 0 11 8" fill="none" xmlns="http://www.w3.org/2000/svg">
<path d="M6.6382 0.383617L5.71269 1.33413C5.64936 1.39895 5.64953 1.50247 5.71303 1.56713L7.28137 3.16663L0.498691 3.16663C0.406699 3.16663 0.332031 3.24129 0.332031 3.33329L0.332031 4.66663C0.332031 4.75862 0.406699 4.83329 0.498691 4.83329L7.28137 4.83329L5.71303 6.43278C5.64969 6.49745 5.64953 6.60079 5.7127 6.66561L6.6382 7.61612C6.66953 7.64844 6.71254 7.66663 6.75754 7.66663C6.80254 7.66663 6.84555 7.64829 6.87687 7.61612L10.2847 4.11612C10.3162 4.08379 10.332 4.04178 10.332 3.99995C10.332 3.95795 10.3162 3.91612 10.2847 3.88362L6.87687 0.383617C6.84555 0.351449 6.80254 0.333285 6.75754 0.333285C6.71254 0.333285 6.66953 0.351449 6.6382 0.383617Z" fill="#00C213"/>
</svg>
